<svg xmlns="http://www.w3.org/2000/svg" xmlns:xlink="http://www.w3.org/1999/xlink" version="1.1" x="0px" y="0px" viewBox="0 0 100 100" enable-background="new 0 0 100 100" xml:space="preserve">
<style>
	.style0{
		fill:	#FFFFFF;
	}
</style><path d="M50 0C22.386 0 0 22.4 0 50s22.386 50 50 50s50-22.386 50-50S77.614 0 50 0L50 0z"/>
<path d="M70.863 45.789H54.211V29.137C54.211 26.9 52.3 25 50 25c-2.325 0-4.209 1.852-4.21 4.137v16.653H29.137 C26.852 45.8 25 47.7 25 50s1.852 4.2 4.1 4.21H45.79v16.653C45.79 73.1 47.7 75 50 75c2.325 0 4.211-1.852 4.211-4.137 V54.21h16.653C73.148 54.2 75 52.3 75 50S73.148 45.8 70.9 45.789z" class="style0"/>
</svg>
