<svg xmlns="http://www.w3.org/2000/svg" viewBox="0 0 100 100" enable-background="new 0 0 100 100"><style>.style0{ fill: #FFFFFF; }</style><path d="M50 0C22.386 0 0 22.4 0 50s22.386 50 50 50 50-22.386 50-50S77.614 0 50 0z"/><path d="M70.863 45.79H54.21V29.136C54.21 26.9 52.3 25 50 25c-2.325 0-4.21 1.852-4.21 4.137V45.79H29.137C26.852 45.8 25 47.7 25 50s1.852 4.2 4.1 4.21h16.69v16.653C45.79 73.1 47.7 75 50 75c2.325 0 4.21-1.852 4.21-4.137V54.21h16.654C73.148 54.2 75 52.3 75 50s-1.852-4.2-4.1-4.21z" class="style0"/></svg>